<svg width="30" height="27" viewBox="0 0 30 27" fill="none" xmlns="http://www.w3.org/2000/svg">
<rect width="30" height="27" fill="#F5F5F5"/>
<g clip-path="url(#clip0_0_1)">
<rect width="30" height="27" fill="#10A37F"/>
<path d="M25.5 13.5C25.5 19.0012 20.8212 23.5 15 23.5C9.17884 23.5 4.5 19.0012 4.5 13.5C4.5 7.99882 9.17884 3.5 15 3.5C20.8212 3.5 25.5 7.99882 25.5 13.5Z" fill="#4AEB46" stroke="white"/>
<ellipse cx="10.8967" cy="10.5069" rx="1.88097" ry="1.47257" fill="#FDFDFD"/>
<ellipse cx="18.881" cy="10.4726" rx="1.88097" ry="1.47257" fill="white"/>
<g filter="url(#filter0_d_0_1)">
<path d="M9 17C14.0457 19.522 16.656 19.7303 21 17" stroke="white"/>
</g>
<ellipse cx="16" cy="14.5" rx="1" ry="0.5" fill="white"/>
<ellipse cx="14" cy="14.5" rx="1" ry="0.5" fill="#FFF9F9"/>
<circle cx="9" cy="17" r="0.5" fill="white"/>
<circle cx="21" cy="17" r="0.5" fill="white"/>
</g>
<defs>
<filter id="filter0_d_0_1" x="-1.22354" y="10.5528" width="32.4896" height="22.9176" filterUnits="userSpaceOnUse" color-interpolation-filters="sRGB">
<feFlood flood-opacity="0" result="BackgroundImageFix"/>
<feColorMatrix in="SourceAlpha" type="matrix" values="0 0 0 0 0 0 0 0 0 0 0 0 0 0 0 0 0 0 127 0" result="hardAlpha"/>
<feOffset dy="4"/>
<feGaussianBlur stdDeviation="5"/>
<feComposite in2="hardAlpha" operator="out"/>
<feColorMatrix type="matrix" values="0 0 0 0 0 0 0 0 0 0 0 0 0 0 0 0 0 0 0.25 0"/>
<feBlend mode="normal" in2="BackgroundImageFix" result="effect1_dropShadow_0_1"/>
<feBlend mode="normal" in="SourceGraphic" in2="effect1_dropShadow_0_1" result="shape"/>
</filter>
<clipPath id="clip0_0_1">
<rect width="30" height="27" fill="white"/>
</clipPath>
</defs>
</svg>
