<svg width="99" height="35" viewBox="0 0 99 35" fill="none" xmlns="http://www.w3.org/2000/svg">
<rect width="99" height="35" fill="#110202"/>
<g filter="url(#filter0_b_0_1)">
<path d="M95.6777 15.978C96.7858 16.4522 97.3399 16.6894 97.503 17.0242C97.6385 17.3023 97.6376 17.6274 97.5008 17.9047C97.3359 18.2387 96.7806 18.473 95.6701 18.9415L86.2702 22.9075C85.5133 23.2268 85.1349 23.3865 84.831 23.3241C84.5766 23.2719 84.3525 23.1228 84.2061 22.9084C84.0312 22.6522 84.0322 22.2414 84.0343 21.42L84.0548 13.4401C84.0569 12.6186 84.0579 12.2078 84.2342 11.9525C84.3817 11.7388 84.6065 11.5909 84.8611 11.54C85.1653 11.4792 85.543 11.6408 86.2982 11.964L95.6777 15.978Z" fill="white"/>
<path d="M86.4645 23.3681L95.8645 19.4022L95.8884 19.3921C96.4234 19.1664 96.8569 18.9835 97.1752 18.814C97.4847 18.6491 97.7918 18.4448 97.9491 18.126C98.1545 17.71 98.1557 17.2223 97.9525 16.8052C97.7968 16.4856 97.4907 16.2798 97.1821 16.1133C96.8647 15.9421 96.4321 15.757 95.8983 15.5286L95.8744 15.5183L86.4949 11.5043L86.473 11.495C86.1141 11.3413 85.8131 11.2125 85.5641 11.1322C85.3091 11.0499 85.0405 10.9943 84.7631 11.0497C84.3812 11.1261 84.044 11.3479 83.8227 11.6685C83.662 11.9012 83.6068 12.1699 83.5814 12.4367C83.5566 12.6971 83.5558 13.0245 83.5548 13.4149L83.5548 13.4388L83.5343 21.4187L83.5343 21.4425C83.5333 21.8329 83.5324 22.1603 83.5558 22.4209C83.5798 22.6878 83.6337 22.9567 83.7932 23.1903C84.0128 23.512 84.3489 23.7356 84.7304 23.8139C85.0075 23.8707 85.2764 23.8165 85.5318 23.7355C85.7812 23.6565 86.0829 23.5292 86.4426 23.3774L86.4645 23.3681Z" stroke="black"/>
</g>
<g filter="url(#filter1_d_0_1)">
<path d="M85 17.5H93" stroke="black"/>
</g>
<ellipse cx="43" cy="17.5" rx="43" ry="17.5" fill="#110202"/>
<circle cx="93" cy="17.5" r="0.5" fill="black"/>
<defs>
<filter id="filter0_b_0_1" x="79.0338" y="6.52744" width="23.5702" height="21.8099" filterUnits="userSpaceOnUse" color-interpolation-filters="sRGB">
<feFlood flood-opacity="0" result="BackgroundImageFix"/>
<feGaussianBlur in="BackgroundImageFix" stdDeviation="2"/>
<feComposite in2="SourceAlpha" operator="in" result="effect1_backgroundBlur_0_1"/>
<feBlend mode="normal" in="SourceGraphic" in2="effect1_backgroundBlur_0_1" result="shape"/>
</filter>
<filter id="filter1_d_0_1" x="81" y="17" width="16" height="9" filterUnits="userSpaceOnUse" color-interpolation-filters="sRGB">
<feFlood flood-opacity="0" result="BackgroundImageFix"/>
<feColorMatrix in="SourceAlpha" type="matrix" values="0 0 0 0 0 0 0 0 0 0 0 0 0 0 0 0 0 0 127 0" result="hardAlpha"/>
<feOffset dy="4"/>
<feGaussianBlur stdDeviation="2"/>
<feComposite in2="hardAlpha" operator="out"/>
<feColorMatrix type="matrix" values="0 0 0 0 0 0 0 0 0 0 0 0 0 0 0 0 0 0 0.25 0"/>
<feBlend mode="normal" in2="BackgroundImageFix" result="effect1_dropShadow_0_1"/>
<feBlend mode="normal" in="SourceGraphic" in2="effect1_dropShadow_0_1" result="shape"/>
</filter>
</defs>
</svg>
