<svg width="29" height="27" viewBox="0 0 29 27" fill="none" xmlns="http://www.w3.org/2000/svg">
<rect width="29" height="27" fill="#F5F5F5"/>
<rect width="29" height="27" fill="#786CFF"/>
<circle cx="14.5" cy="13.5" r="11" fill="#7EA1F9" stroke="black"/>
<circle opacity="0.16" cx="14.5882" cy="9.58256" r="3" fill="black" stroke="black"/>
<path d="M9.52091 15.0716C9.52083 15.0638 9.52012 14.9705 9.76106 14.8139C9.99432 14.6622 10.3632 14.5161 10.8563 14.3918C11.8348 14.1452 13.1681 14.0168 14.5213 14.0183C15.8746 14.0198 17.2071 14.1511 18.1843 14.4029C18.6767 14.5298 19.0445 14.6788 19.277 14.8336C19.5146 14.9918 19.5211 15.0903 19.5209 15.1108C19.5092 16.179 19.504 17.5988 19.5019 18.7503C19.5008 19.3263 19.5004 19.8357 19.5003 20.201L19.5003 20.2857L9.50568 20.2497L9.5066 20.1586C9.51016 19.7888 9.51468 19.274 9.51855 18.6943C9.52628 17.5358 9.53142 16.1144 9.52091 15.0716Z" fill="#7EA1F9" stroke="black"/>
</svg>
